<svg width="1067" height="923" viewBox="0 0 1067 923" fill="none" xmlns="http://www.w3.org/2000/svg">
<path d="M986.022 922.999H80.9777C70.3754 923.044 59.87 920.425 50.0618 915.293C40.2536 910.161 31.3347 902.615 23.8147 893.087C16.2948 883.559 10.321 872.236 6.2348 859.764C2.14859 847.292 0.029977 833.917 0 820.401V102.599C0 45.9071 36.2399 0 80.9777 0H986.022C1030.76 0 1067 45.9071 1067 102.599V820.401C1066.97 833.917 1064.85 847.292 1060.77 859.764C1056.68 872.236 1050.71 883.559 1043.19 893.087C1035.67 902.615 1026.75 910.161 1016.94 915.293C1007.13 920.425 996.625 923.044 986.022 922.999Z" fill="#566282"/>
</svg>
