<svg width="1067" height="413" viewBox="0 0 1067 413" fill="none" xmlns="http://www.w3.org/2000/svg">
<path d="M510.064 147.296L415.673 39.8359C404.617 27.2299 391.488 17.2321 377.037 10.4151C362.586 3.59803 347.097 0.0956487 331.456 0.108433H81.0158C70.3784 0.10273 59.8443 2.48499 50.0153 7.1191C40.1862 11.7532 31.2548 18.5484 23.7313 27.1164C16.2078 35.6844 10.2396 45.8574 6.1677 57.0541C2.09581 68.2508 -1.17784e-06 80.2519 0 92.3718V412.58H1067V266.565C1067 242.095 1058.47 218.628 1043.28 201.325C1028.1 184.022 1007.5 174.302 986.022 174.302H567.301C545.841 174.306 525.256 164.566 510.064 147.296Z" fill="#132452"/>
</svg>
