<svg width="35" height="35" viewBox="0 0 35 35" fill="none" xmlns="http://www.w3.org/2000/svg">
<path d="M0 1.09375C0 0.803669 0.115234 0.52547 0.320352 0.320352C0.52547 0.115234 0.803669 0 1.09375 0H22.9688C23.2588 0 23.537 0.115234 23.7421 0.320352C23.9473 0.52547 24.0625 0.803669 24.0625 1.09375V5.46875C24.0625 5.75883 23.9473 6.03703 23.7421 6.24215C23.537 6.44727 23.2588 6.5625 22.9688 6.5625C22.6787 6.5625 22.4005 6.44727 22.1954 6.24215C21.9902 6.03703 21.875 5.75883 21.875 5.46875V2.1875H13.125V28.4375H13.5778C13.7944 29.2009 14.0809 29.9316 14.4375 30.625H7.65625C7.36617 30.625 7.08797 30.5098 6.88285 30.3046C6.67773 30.0995 6.5625 29.8213 6.5625 29.5312C6.5625 29.2412 6.67773 28.963 6.88285 28.7579C7.08797 28.5527 7.36617 28.4375 7.65625 28.4375H10.9375V2.1875H2.1875V5.46875C2.1875 5.75883 2.07227 6.03703 1.86715 6.24215C1.66203 6.44727 1.38383 6.5625 1.09375 6.5625C0.803669 6.5625 0.52547 6.44727 0.320352 6.24215C0.115234 6.03703 0 5.75883 0 5.46875V1.09375ZM35 25.1562C35 27.767 33.9629 30.2708 32.1168 32.1168C30.2708 33.9629 27.767 35 25.1562 35C22.5455 35 20.0417 33.9629 18.1957 32.1168C16.3496 30.2708 15.3125 27.767 15.3125 25.1562C15.3125 22.5455 16.3496 20.0417 18.1957 18.1957C20.0417 16.3496 22.5455 15.3125 25.1562 15.3125C27.767 15.3125 30.2708 16.3496 32.1168 18.1957C33.9629 20.0417 35 22.5455 35 25.1562ZM26.25 20.7812C26.25 20.4912 26.1348 20.213 25.9296 20.0079C25.7245 19.8027 25.4463 19.6875 25.1562 19.6875C24.8662 19.6875 24.588 19.8027 24.3829 20.0079C24.1777 20.213 24.0625 20.4912 24.0625 20.7812V24.0625H20.7812C20.4912 24.0625 20.213 24.1777 20.0079 24.3829C19.8027 24.588 19.6875 24.8662 19.6875 25.1562C19.6875 25.4463 19.8027 25.7245 20.0079 25.9296C20.213 26.1348 20.4912 26.25 20.7812 26.25H24.0625V29.5312C24.0625 29.8213 24.1777 30.0995 24.3829 30.3046C24.588 30.5098 24.8662 30.625 25.1562 30.625C25.4463 30.625 25.7245 30.5098 25.9296 30.3046C26.1348 30.0995 26.25 29.8213 26.25 29.5312V26.25H29.5312C29.8213 26.25 30.0995 26.1348 30.3046 25.9296C30.5098 25.7245 30.625 25.4463 30.625 25.1562C30.625 24.8662 30.5098 24.588 30.3046 24.3829C30.0995 24.1777 29.8213 24.0625 29.5312 24.0625H26.25V20.7812Z" fill="#132452"/>
</svg>
