<svg width="35" height="35" viewBox="0 0 35 35" fill="none" xmlns="http://www.w3.org/2000/svg">
<path d="M18.2743 0.321312C18.1727 0.219461 18.052 0.138653 17.9191 0.0835169C17.7863 0.0283809 17.6438 0 17.5 0C17.3561 0 17.2137 0.0283809 17.0808 0.0835169C16.948 0.138653 16.8273 0.219461 16.7257 0.321312L11.2576 5.78976C11.0522 5.99512 10.9369 6.27366 10.9369 6.56409C10.9369 6.85452 11.0522 7.13305 11.2576 7.33842C11.4629 7.54379 11.7414 7.65916 12.0319 7.65916C12.3223 7.65916 12.6008 7.54379 12.8061 7.33842L16.4064 3.73581V12.0325C16.4064 12.3226 16.5216 12.6008 16.7267 12.8059C16.9318 13.011 17.2099 13.1262 17.5 13.1262C17.79 13.1262 18.0682 13.011 18.2733 12.8059C18.4784 12.6008 18.5936 12.3226 18.5936 12.0325V3.73581L22.1938 7.33842C22.3992 7.54379 22.6777 7.65916 22.9681 7.65916C23.2586 7.65916 23.5371 7.54379 23.7424 7.33842C23.9478 7.13305 24.0631 6.85452 24.0631 6.56409C24.0631 6.27366 23.9478 5.99512 23.7424 5.78976L18.2743 0.321312ZM0.321294 16.7266C0.219448 16.8282 0.138645 16.9489 0.0835123 17.0818C0.0283793 17.2147 0 17.3571 0 17.501C0 17.6448 0.0283793 17.7873 0.0835123 17.9202C0.138645 18.053 0.219448 18.1737 0.321294 18.2753L5.78943 23.7438C5.99479 23.9491 6.27331 24.0645 6.56372 24.0645C6.85414 24.0645 7.13266 23.9491 7.33801 23.7438C7.54336 23.5384 7.65873 23.2599 7.65873 22.9694C7.65873 22.679 7.54336 22.4005 7.33801 22.1951L3.7356 18.5947H12.0319C12.3219 18.5947 12.6001 18.4794 12.8052 18.2743C13.0103 18.0692 13.1255 17.791 13.1255 17.501C13.1255 17.2109 13.0103 16.9327 12.8052 16.7276C12.6001 16.5225 12.3219 16.4073 12.0319 16.4073H3.7356L7.33801 12.8069C7.54336 12.6015 7.65873 12.323 7.65873 12.0325C7.65873 11.7421 7.54336 11.4636 7.33801 11.2582C7.13266 11.0528 6.85414 10.9375 6.56372 10.9375C6.27331 10.9375 5.99479 11.0528 5.78943 11.2582L0.321294 16.7266ZM17.5 35C17.3563 35.0003 17.2139 34.9722 17.0811 34.9174C16.9482 34.8626 16.8275 34.7821 16.7257 34.6806L11.2576 29.2122C11.0522 29.0068 10.9369 28.7283 10.9369 28.4379C10.9369 28.1474 11.0522 27.8689 11.2576 27.6635C11.4629 27.4582 11.7414 27.3428 12.0319 27.3428C12.3223 27.3428 12.6008 27.4582 12.8061 27.6635L16.4064 31.2661V22.9694C16.4064 22.6794 16.5216 22.4012 16.7267 22.1961C16.9318 21.991 17.2099 21.8757 17.5 21.8757C17.79 21.8757 18.0682 21.991 18.2733 22.1961C18.4784 22.4012 18.5936 22.6794 18.5936 22.9694V31.2661L22.1938 27.6635C22.3992 27.4582 22.6777 27.3428 22.9681 27.3428C23.2586 27.3428 23.5371 27.4582 23.7424 27.6635C23.9478 27.8689 24.0631 28.1474 24.0631 28.4379C24.0631 28.7283 23.9478 29.0068 23.7424 29.2122L18.2743 34.6806C18.1725 34.7821 18.0518 34.8626 17.9189 34.9174C17.7861 34.9722 17.6437 35.0003 17.5 35ZM34.6787 18.2753C34.7805 18.1737 34.8614 18.053 34.9165 17.9202C34.9716 17.7873 35 17.6448 35 17.501C35 17.3571 34.9716 17.2147 34.9165 17.0818C34.8614 16.9489 34.7805 16.8282 34.6787 16.7266L29.2106 11.2582C29.0052 11.0528 28.7267 10.9375 28.4363 10.9375C28.1459 10.9375 27.8673 11.0528 27.662 11.2582C27.4566 11.4636 27.3413 11.7421 27.3413 12.0325C27.3413 12.323 27.4566 12.6015 27.662 12.8069L31.2644 16.4073H22.9681C22.6781 16.4073 22.3999 16.5225 22.1948 16.7276C21.9897 16.9327 21.8745 17.2109 21.8745 17.501C21.8745 17.791 21.9897 18.0692 22.1948 18.2743C22.3999 18.4794 22.6781 18.5947 22.9681 18.5947H31.2644L27.662 22.1951C27.4566 22.4005 27.3413 22.679 27.3413 22.9694C27.3413 23.2599 27.4566 23.5384 27.662 23.7438C27.8673 23.9491 28.1459 24.0645 28.4363 24.0645C28.7267 24.0645 29.0052 23.9491 29.2106 23.7438L34.6787 18.2753Z" fill="#132452"/>
</svg>
