<svg width="40" height="41" viewBox="0 0 40 41" fill="none" xmlns="http://www.w3.org/2000/svg">
<path d="M6.21023 1.46168L19.9959 15.3986L33.7101 1.53389C34.013 1.20792 34.3779 0.947149 34.783 0.767224C35.188 0.587299 35.6248 0.491923 36.0672 0.486816C37.0144 0.486816 37.9228 0.867218 38.5926 1.54434C39.2623 2.22146 39.6386 3.13983 39.6386 4.09742C39.6469 4.54009 39.5657 4.9798 39.3999 5.38959C39.2341 5.79937 38.9872 6.17057 38.6743 6.48042L24.7815 20.3451L38.6743 34.3904C39.2629 34.9726 39.6081 35.7609 39.6386 36.5928C39.6386 37.5504 39.2623 38.4688 38.5926 39.1459C37.9228 39.823 37.0144 40.2034 36.0672 40.2034C35.612 40.2225 35.1579 40.1457 34.7337 39.9779C34.3095 39.8101 33.9244 39.5549 33.6029 39.2286L19.9959 25.2917L6.24594 39.1925C5.94418 39.5076 5.58368 39.7592 5.18524 39.9327C4.78681 40.1062 4.35833 40.1982 3.92453 40.2034C2.97733 40.2034 2.06893 39.823 1.39916 39.1459C0.729392 38.4688 0.35312 37.5504 0.35312 36.5928C0.344793 36.1502 0.426032 35.7105 0.591851 35.3007C0.757669 34.8909 1.00457 34.5197 1.3174 34.2098L15.2102 20.3451L1.3174 6.29989C0.728778 5.71771 0.383619 4.92935 0.35312 4.09742C0.35312 3.13983 0.729392 2.22146 1.39916 1.54434C2.06893 0.867218 2.97733 0.486816 3.92453 0.486816C4.78167 0.497648 5.60309 0.847877 6.21023 1.46168Z" fill="#132452" fill-opacity="0.85"/>
</svg>
