<svg width="57" height="47" viewBox="0 0 57 47" fill="none" xmlns="http://www.w3.org/2000/svg">
<path d="M8.54191 8.21553C8.54191 7.9039 8.69205 7.60503 8.95929 7.38468C9.22652 7.16432 9.58898 7.04053 9.96691 7.04053H11.2152C13.2872 7.04053 14.4785 8.15208 15.1682 9.26128C15.6384 10.0203 15.9776 10.9462 16.2597 11.7499H45.6005C46.0408 11.75 46.4752 11.8343 46.8694 11.9961C47.2637 12.1579 47.6071 12.3928 47.8727 12.6824C48.1384 12.972 48.319 13.3084 48.4004 13.6653C48.4819 14.0221 48.4619 14.3897 48.3422 14.7391L44.0786 27.1354C43.7394 28.1189 43.0206 28.9843 42.031 29.6005C41.0415 30.2167 39.8352 30.5501 38.5952 30.5499H24.12C22.8696 30.5503 21.6538 30.2116 20.6599 29.5861C19.6659 28.9606 18.949 28.0829 18.6195 27.0884L16.7898 21.5541C16.7793 21.5293 16.7698 21.5042 16.7613 21.4789L13.823 13.261L13.538 12.469C13.253 11.6559 13.0022 10.9368 12.626 10.3329C12.1728 9.60438 11.7567 9.39288 11.2124 9.39288H9.96406C9.58613 9.39288 9.22367 9.26908 8.95643 9.04873C8.6892 8.82837 8.53906 8.52951 8.53906 8.21788L8.54191 8.21553ZM24.2255 39.9499C25.3593 39.9499 26.4466 39.5785 27.2483 38.9175C28.0501 38.2564 28.5005 37.3598 28.5005 36.4249C28.5005 35.49 28.0501 34.5934 27.2483 33.9324C26.4466 33.2713 25.3593 32.8999 24.2255 32.8999C23.0917 32.8999 22.0043 33.2713 21.2026 33.9324C20.4009 34.5934 19.9505 35.49 19.9505 36.4249C19.9505 37.3598 20.4009 38.2564 21.2026 38.9175C22.0043 39.5785 23.0917 39.9499 24.2255 39.9499ZM38.4755 39.9499C39.6093 39.9499 40.6966 39.5785 41.4983 38.9175C42.3001 38.2564 42.7505 37.3598 42.7505 36.4249C42.7505 35.49 42.3001 34.5934 41.4983 33.9324C40.6966 33.2713 39.6093 32.8999 38.4755 32.8999C37.3417 32.8999 36.2543 33.2713 35.4526 33.9324C34.6509 34.5934 34.2005 35.49 34.2005 36.4249C34.2005 37.3598 34.6509 38.2564 35.4526 38.9175C36.2543 39.5785 37.3417 39.9499 38.4755 39.9499Z" fill="#132452"/>
</svg>
