<svg width="28" height="27" viewBox="0 0 28 27" fill="none" xmlns="http://www.w3.org/2000/svg">
<path d="M14 8.80435C13.011 8.80435 12.0442 9.07974 11.2219 9.59571C10.3996 10.1117 9.75867 10.845 9.3802 11.7031C9.00173 12.5611 8.90271 13.5052 9.09565 14.4161C9.28859 15.3269 9.76484 16.1636 10.4642 16.8203C11.1635 17.477 12.0545 17.9242 13.0245 18.1054C13.9945 18.2866 14.9999 18.1936 15.9136 17.8382C16.8273 17.4828 17.6083 16.881 18.1577 16.1088C18.7072 15.3366 19.0004 14.4287 19.0004 13.5C18.9965 12.2558 18.4684 11.0636 17.5315 10.1838C16.5946 9.30398 15.325 8.80806 14 8.80435ZM24.7959 13.5C24.7933 13.9388 24.7591 14.3768 24.6934 14.8113L27.7368 17.0487C27.8694 17.1515 27.9587 17.2952 27.9888 17.4541C28.0189 17.6131 27.9879 17.7769 27.9012 17.9163L25.0222 22.5837C24.9347 22.7219 24.7981 22.8267 24.6364 22.8796C24.4748 22.9325 24.2984 22.9302 24.1384 22.8731L20.5599 21.5231C19.8148 22.0619 18.9994 22.5091 18.1335 22.8537L17.5984 26.4213C17.5685 26.5811 17.4804 26.7261 17.3492 26.8317C17.2179 26.9373 17.0518 26.9967 16.879 27H11.121C10.9514 26.9969 10.7879 26.9399 10.6572 26.8383C10.5266 26.7367 10.4364 26.5965 10.4016 26.4406L9.86652 22.8731C8.99824 22.5325 8.18222 22.0846 7.44006 21.5413L3.86162 22.8913C3.70166 22.9485 3.52536 22.9509 3.36371 22.8981C3.20206 22.8452 3.06541 22.7406 2.9778 22.6025L0.0987953 17.9356C0.0121364 17.7962 -0.0189095 17.6324 0.0112054 17.4735C0.0413203 17.3146 0.130634 17.1709 0.263185 17.0681L3.30657 14.8306C3.24166 14.3896 3.20742 13.9452 3.20406 13.5C3.20667 13.0612 3.24091 12.6232 3.30657 12.1887L0.263185 9.95126C0.130634 9.84848 0.0413203 9.70479 0.0112054 9.54587C-0.0189095 9.38695 0.0121364 9.22315 0.0987953 9.08374L2.9778 4.41626C3.06531 4.27809 3.20192 4.17332 3.36358 4.1204C3.52524 4.06747 3.70159 4.06977 3.86162 4.12689L7.44006 5.47689C8.1852 4.93807 9.00062 4.4909 9.86652 4.14626L10.4016 0.578739C10.4315 0.41894 10.5196 0.273865 10.6508 0.168306C10.7821 0.0627477 10.9482 0.00325687 11.121 0H16.879C17.0486 0.00310003 17.2121 0.0600992 17.3428 0.161693C17.4734 0.263286 17.5636 0.403473 17.5984 0.55937L18.1335 4.12689C19.0029 4.46731 19.8199 4.9152 20.5631 5.4587L24.1384 4.1087C24.2983 4.05152 24.4746 4.04913 24.6363 4.10195C24.7979 4.15477 24.9346 4.25941 25.0222 4.39748L27.9012 9.06496C27.9879 9.20436 28.0189 9.36816 27.9888 9.52709C27.9587 9.68601 27.8694 9.8297 27.7368 9.93248L24.6934 12.17C24.7583 12.6107 24.7926 13.055 24.7959 13.5Z" fill="#132452"/>
</svg>
