<svg width="17" height="18" viewBox="0 0 17 18" fill="none" xmlns="http://www.w3.org/2000/svg">
<path d="M14.875 6.75H10.625V2.25C10.625 1.65326 10.4011 1.08097 10.0026 0.65901C9.60409 0.237053 9.06359 0 8.5 0C7.93641 0 7.39591 0.237053 6.9974 0.65901C6.59888 1.08097 6.375 1.65326 6.375 2.25L6.45044 6.75H2.125C1.56141 6.75 1.02091 6.98705 0.622398 7.40901C0.223883 7.83097 0 8.40326 0 9C0 9.59674 0.223883 10.169 0.622398 10.591C1.02091 11.0129 1.56141 11.25 2.125 11.25L6.45044 11.1701L6.375 15.75C6.375 16.3467 6.59888 16.919 6.9974 17.341C7.39591 17.7629 7.93641 18 8.5 18C9.06359 18 9.60409 17.7629 10.0026 17.341C10.4011 16.919 10.625 16.3467 10.625 15.75V11.1701L14.875 11.25C15.4386 11.25 15.9791 11.0129 16.3776 10.591C16.7761 10.169 17 9.59674 17 9C17 8.40326 16.7761 7.83097 16.3776 7.40901C15.9791 6.98705 15.4386 6.75 14.875 6.75Z" fill="#132452"/>
</svg>
