<svg width="41" height="38" viewBox="0 0 41 38" fill="none" xmlns="http://www.w3.org/2000/svg">
<path d="M6.56814 1.40343L20.502 14.2564L34.3637 1.47003C34.6699 1.16941 35.0387 0.928923 35.4481 0.762992C35.8575 0.597062 36.299 0.509104 36.7461 0.504395C37.7035 0.504395 38.6217 0.855209 39.2987 1.47966C39.9756 2.10412 40.3559 2.95106 40.3559 3.83417C40.3644 4.24241 40.2823 4.64793 40.1147 5.02584C39.9471 5.40375 39.6975 5.74608 39.3813 6.03182L25.3391 18.8182L39.3813 31.771C39.9762 32.3079 40.3251 33.0349 40.3559 33.8022C40.3559 34.6853 39.9756 35.5322 39.2987 36.1567C38.6217 36.7811 37.7035 37.1319 36.7461 37.1319C36.2861 37.1495 35.8271 37.0787 35.3983 36.9239C34.9695 36.7692 34.5803 36.5338 34.2554 36.2329L20.502 23.38L6.60423 36.1996C6.29922 36.4902 5.93485 36.7222 5.53213 36.8822C5.12941 37.0422 4.69632 37.1271 4.25786 37.1319C3.30048 37.1319 2.38231 36.7811 1.70534 36.1567C1.02837 35.5322 0.648048 34.6853 0.648048 33.8022C0.639632 33.3939 0.721744 32.9884 0.889346 32.6105C1.05695 32.2326 1.3065 31.8903 1.6227 31.6045L15.6649 18.8182L1.6227 5.86533C1.02775 5.32844 0.678875 4.60139 0.648048 3.83417C0.648048 2.95106 1.02837 2.10412 1.70534 1.47966C2.38231 0.855209 3.30048 0.504395 4.25786 0.504395C5.12421 0.514384 5.95447 0.837372 6.56814 1.40343Z" fill="#999999"/>
</svg>
