<svg width="30" height="24" viewBox="0 0 30 24" fill="none" xmlns="http://www.w3.org/2000/svg">
<path d="M0.293604 0.943262C0.293604 0.717828 0.404229 0.501627 0.601142 0.342221C0.798055 0.182815 1.06513 0.0932617 1.3436 0.0932617H2.2634C3.7901 0.0932617 4.6679 0.897362 5.1761 1.69976C5.5226 2.24886 5.7725 2.91866 5.9804 3.50006H27.5999C27.9244 3.50014 28.2444 3.56109 28.5349 3.67813C28.8254 3.79516 29.0785 3.9651 29.2742 4.17461C29.4699 4.38412 29.603 4.6275 29.6631 4.88564C29.7231 5.14379 29.7084 5.40969 29.6201 5.66246L26.4785 14.63C26.2286 15.3414 25.6989 15.9675 24.9698 16.4133C24.2406 16.859 23.3518 17.1002 22.4381 17.1001H11.7722C10.8509 17.1003 9.95502 16.8553 9.22263 16.4028C8.49024 15.9503 7.96197 15.3154 7.7192 14.596L6.371 10.5925C6.36327 10.5745 6.35627 10.5564 6.35 10.5381L4.1849 4.59316L3.9749 4.02026C3.7649 3.43206 3.5801 2.91186 3.3029 2.47496C2.969 1.94796 2.6624 1.79496 2.2613 1.79496H1.3415C1.06303 1.79496 0.795955 1.70541 0.599042 1.546C0.402128 1.3866 0.291504 1.1704 0.291504 0.944962L0.293604 0.943262ZM11.8499 23.9001C12.6853 23.9001 13.4866 23.6314 14.0773 23.1532C14.668 22.675 14.9999 22.0264 14.9999 21.3501C14.9999 20.6738 14.668 20.0252 14.0773 19.5469C13.4866 19.0687 12.6853 18.8001 11.8499 18.8001C11.0145 18.8001 10.2133 19.0687 9.62252 19.5469C9.03178 20.0252 8.6999 20.6738 8.6999 21.3501C8.6999 22.0264 9.03178 22.675 9.62252 23.1532C10.2133 23.6314 11.0145 23.9001 11.8499 23.9001ZM22.3499 23.9001C23.1853 23.9001 23.9866 23.6314 24.5773 23.1532C25.168 22.675 25.4999 22.0264 25.4999 21.3501C25.4999 20.6738 25.168 20.0252 24.5773 19.5469C23.9866 19.0687 23.1853 18.8001 22.3499 18.8001C21.5145 18.8001 20.7133 19.0687 20.1225 19.5469C19.5318 20.0252 19.1999 20.6738 19.1999 21.3501C19.1999 22.0264 19.5318 22.675 20.1225 23.1532C20.7133 23.6314 21.5145 23.9001 22.3499 23.9001Z" fill="white"/>
</svg>
