<svg width="22" height="20" viewBox="0 0 22 20" fill="none" xmlns="http://www.w3.org/2000/svg">
<path d="M19.875 19.6871L12.875 13.3144C12.25 13.7696 11.5312 14.1299 10.7188 14.3954C9.90625 14.661 9.04167 14.7937 8.125 14.7937C5.85417 14.7937 3.9325 14.0776 2.36 12.6452C0.7875 11.2129 0.000833333 9.46344 0 7.39687C0 5.32954 0.786667 3.58009 2.36 2.14851C3.93333 0.716927 5.855 0.000758653 8.125 0C10.3958 0 12.3175 0.716169 13.89 2.14851C15.4625 3.58084 16.2492 5.3303 16.25 7.39687C16.25 8.23139 16.1042 9.01849 15.8125 9.75818C15.5208 10.4979 15.125 11.1522 14.625 11.7212L21.6562 18.1223C21.8854 18.331 22 18.587 22 18.8905C22 19.1939 21.875 19.4595 21.625 19.6871C21.3958 19.8957 21.1042 20 20.75 20C20.3958 20 20.1042 19.8957 19.875 19.6871ZM8.125 12.5178C9.6875 12.5178 11.0158 12.0197 12.11 11.0236C13.2042 10.0275 13.7508 8.81859 13.75 7.39687C13.75 5.97439 13.2029 4.7651 12.1088 3.76899C11.0146 2.77288 9.68667 2.2752 8.125 2.27596C6.5625 2.27596 5.23417 2.77402 4.14 3.77013C3.04583 4.76624 2.49917 5.97515 2.5 7.39687C2.5 8.81934 3.04708 10.0286 4.14125 11.0247C5.23542 12.0209 6.56333 12.5185 8.125 12.5178Z" fill="#A5A5A5"/>
</svg>
