<svg width="60" height="54" viewBox="0 0 60 54" fill="none" xmlns="http://www.w3.org/2000/svg">
<path d="M12.03 38.1673L6.423 5.40041H3C2.20435 5.40041 1.44129 5.11595 0.87868 4.60961C0.31607 4.10326 0 3.41651 0 2.70043C0 1.98436 0.31607 1.29761 0.87868 0.791262C1.44129 0.284918 2.20435 0.000457182 3 0.000457182H8.955C9.67873 -0.0115678 10.3826 0.213978 10.935 0.634952C11.502 1.06408 11.8719 1.66732 11.973 2.32784L12.957 8.10039H36V13.5003H13.881L17.571 35.1002H45.768L50.268 21.6003H56.532L50.874 38.575C50.6888 39.1315 50.3091 39.6193 49.7914 39.9661C49.2736 40.3129 48.6454 40.5002 48 40.5001H15.048C14.3038 40.5125 13.5813 40.2736 13.023 39.8305C12.4788 39.4025 12.1251 38.8117 12.027 38.1673H12.03ZM24 48.6C24 50.0322 23.3679 51.4057 22.2426 52.4184C21.1174 53.4311 19.5913 54 18 54C16.4087 54 14.8826 53.4311 13.7574 52.4184C12.6321 51.4057 12 50.0322 12 48.6C12 47.1679 12.6321 45.7944 13.7574 44.7817C14.8826 43.769 16.4087 43.2001 18 43.2001C19.5913 43.2001 21.1174 43.769 22.2426 44.7817C23.3679 45.7944 24 47.1679 24 48.6ZM51 48.6C51 50.0322 50.3679 51.4057 49.2426 52.4184C48.1174 53.4311 46.5913 54 45 54C43.4087 54 41.8826 53.4311 40.7574 52.4184C39.6321 51.4057 39 50.0322 39 48.6C39 47.1679 39.6321 45.7944 40.7574 44.7817C41.8826 43.769 43.4087 43.2001 45 43.2001C46.5913 43.2001 48.1174 43.769 49.2426 44.7817C50.3679 45.7944 51 47.1679 51 48.6ZM51 0.000457182C51.7957 0.000457182 52.5587 0.284918 53.1213 0.791262C53.6839 1.29761 54 1.98436 54 2.70043V5.40041H57C57.7957 5.40041 58.5587 5.68487 59.1213 6.19122C59.6839 6.69756 60 7.38431 60 8.10039C60 8.81647 59.6839 9.50322 59.1213 10.0096C58.5587 10.5159 57.7957 10.8004 57 10.8004H54V13.5003C54 14.2164 53.6839 14.9032 53.1213 15.4095C52.5587 15.9159 51.7957 16.2003 51 16.2003C50.2043 16.2003 49.4413 15.9159 48.8787 15.4095C48.3161 14.9032 48 14.2164 48 13.5003V10.8004H45C44.2043 10.8004 43.4413 10.5159 42.8787 10.0096C42.3161 9.50322 42 8.81647 42 8.10039C42 7.38431 42.3161 6.69756 42.8787 6.19122C43.4413 5.68487 44.2043 5.40041 45 5.40041H48V2.70043C48 1.98436 48.3161 1.29761 48.8787 0.791262C49.4413 0.284918 50.2043 0.000457182 51 0.000457182Z" fill="#999999"/>
</svg>
