<svg width="56" height="52" viewBox="0 0 56 52" fill="none" xmlns="http://www.w3.org/2000/svg">
<path d="M28.28 43.6249L28 43.9007L27.692 43.6249C14.392 31.7376 5.6 23.8771 5.6 15.9062C5.6 10.3901 9.8 6.25297 15.4 6.25297C19.712 6.25297 23.912 9.01104 25.396 12.762H30.604C32.088 9.01104 36.288 6.25297 40.6 6.25297C46.2 6.25297 50.4 10.3901 50.4 15.9062C50.4 23.8771 41.608 31.7376 28.28 43.6249ZM40.6 0.736816C35.728 0.736816 31.052 2.97086 28 6.47361C24.948 2.97086 20.272 0.736816 15.4 0.736816C6.776 0.736816 0 7.38378 0 15.9062C0 26.3042 9.52 34.8266 23.94 47.7068L28 51.3475L32.06 47.7068C46.48 34.8266 56 26.3042 56 15.9062C56 7.38378 49.224 0.736816 40.6 0.736816Z" fill="#999999"/>
</svg>
